:version 1.10
:name ASF
:units
  mass 1
  length 1
  angle deg
:documentation
  ASF file generated by Kaydara
:root
  axis xyz
  order  tx ty tz rx ry rz
  position 0 0 0
  orientation 0 0 0
:bonedata
  begin
    id 1
    name SpineDummy
    direction 0.999998 -0.00179978 1.38929e-006
    length 3.60008
    axis 0 0 0 xyz
  end
  begin
    id 2
    name Spine
    direction 0.964365 0.262802 0.0305839
    length 8.13928
    axis 1.33928 -1.75354 15.2838 xyz
    dof rx ry rz
  end
  begin
    id 3
    name Spine1
    direction 0.811168 0.572065 0.12144
    length 7.14954
    axis 2.2224 -6.9761 35.2157 xyz
    dof rx ry rz
  end
  begin
    id 4
    name Neck
    direction 0 0 0
    length 0
    axis 2.2224 -6.9761 35.2157 xyz
    dof rx ry rz
  end
  begin
    id 5
    name HeadDummy
    direction 0.810939 0.572387 0.121455
    length 3.55534
    axis 2.2224 -6.9761 35.2157 xyz
  end
  begin
    id 6
    name Head
    direction 0.998226 -0.000232542 0.0595419
    length 7.35666
    axis -3.03688 -3.41352 -0.0133467 xyz
    dof rx ry rz
  end
  begin
    id 7
    name R_ClavicleDummy
    direction 0.531669 -0.194489 -0.824319
    length 2.49392
    axis 2.2224 -6.9761 35.2157 xyz
  end
  begin
    id 8
    name R_Clavicle
    direction -0.155119 0.0480802 -0.986725
    length 4.485
    axis -54.2764 80.6538 162.779 xyz
    dof rx ry rz
  end
  begin
    id 9
    name R_UpperArm
    direction -0.955567 0.200068 -0.216484
    length 10.1122
    axis -72.9943 12.5026 168.175 xyz
    dof rx ry rz
  end
  begin
    id 10
    name R_Forearm
    direction -0.61433 0.385743 0.688332
    length 9.39148
    axis -117.015 -43.4982 147.875 xyz
    dof rx ry rz
  end
  begin
    id 11
    name R_Hand
    direction -0.699429 0.0170333 0.714499
    length 3.66324
    axis -45.0303 -36.7097 175.478 xyz
    dof rx ry rz
  end
  begin
    id 12
    name L_ClavicleDummy
    direction 0.40287 -0.36502 0.839319
    length 2.49392
    axis 2.2224 -6.9761 35.2157 xyz
  end
  begin
    id 13
    name L_Clavicle
    direction -0.231271 -0.0726419 0.970174
    length 4.485
    axis 18.4357 -75.9711 -162.563 xyz
    dof rx ry rz
  end
  begin
    id 14
    name L_UpperArm
    direction -0.917494 0.144359 0.370629
    length 10.1122
    axis 56.0417 -21.7544 171.058 xyz
    dof rx ry rz
  end
  begin
    id 15
    name L_Forearm
    direction -0.496786 0.615074 -0.612281
    length 9.39148
    axis 89.8094 37.7546 128.927 xyz
    dof rx ry rz
  end
  begin
    id 16
    name L_Hand
    direction -0.409932 0.64962 -0.640274
    length 3.66324
    axis -0.424369 32.133 128.52 xyz
    dof rx ry rz
  end
  begin
    id 17
    name L_ThighDummy
    direction -1.84081e-006 1.87549e-006 1
    length 3.13049
    axis 0 0 0 xyz
  end
  begin
    id 18
    name L_Thigh
    direction -0.947739 0.307978 0.083308
    length 17.9961
    axis 173.219 -4.77873 161.998 xyz
    dof rx ry rz
  end
  begin
    id 19
    name L_Calf
    direction -0.728814 -0.684427 0.0197583
    length 13.3367
    axis 167.331 -1.13214 -136.799 xyz
    dof rx ry rz
  end
  begin
    id 20
    name L_Foot
    direction -0.9028 0.418719 0.0981191
    length 5.8674
    axis 163.436 11.5135 -155.37 xyz
    dof rx ry rz
  end
  begin
    id 21
    name L_Toe0
    direction -0.35341 0.886259 0.299411
    length 4.75286
    axis 169.316 -17.4222 111.74 xyz
    dof rx ry rz
  end
  begin
    id 22
    name R_ThighDummy
    direction 9.32778e-007 -8.82053e-007 -1
    length 3.13049
    axis 0 0 0 xyz
  end
  begin
    id 23
    name R_Thigh
    direction -0.925064 0.37528 -0.0585023
    length 17.9961
    axis -178.698 3.35385 157.919 xyz
    dof rx ry rz
  end
  begin
    id 24
    name R_Calf
    direction -0.68969 -0.718776 -0.0876886
    length 13.3367
    axis -160.504 5.03065 -133.817 xyz
    dof rx ry rz
  end
  begin
    id 25
    name R_Foot
    direction -0.857405 0.418858 -0.299022
    length 5.8674
    axis -161.328 4.38911 -154.413 xyz
    dof rx ry rz
  end
  begin
    id 26
    name R_Toe0
    direction -0.100745 0.952789 -0.286433
    length 4.75286
    axis 171.683 16.6445 96.0359 xyz
    dof rx ry rz
  end
:hierarchy
  begin
    root SpineDummy L_ThighDummy R_ThighDummy
    SpineDummy Spine
    Spine Spine1
    Spine1 Neck
    Neck HeadDummy R_ClavicleDummy L_ClavicleDummy
    HeadDummy Head
    R_ClavicleDummy R_Clavicle
    R_Clavicle R_UpperArm
    R_UpperArm R_Forearm
    R_Forearm R_Hand
    L_ClavicleDummy L_Clavicle
    L_Clavicle L_UpperArm
    L_UpperArm L_Forearm
    L_Forearm L_Hand
    L_ThighDummy L_Thigh
    L_Thigh L_Calf
    L_Calf L_Foot
    L_Foot L_Toe0
    R_ThighDummy R_Thigh
    R_Thigh R_Calf
    R_Calf R_Foot
    R_Foot R_Toe0
  end

:SAMPLES-PER-SECOND 30
:FULLY-SPECIFIED
:DEGREES
256
root  -22.7699 27.2684 11.6639 53.2272 0.454726 89.6634
Spine  -11.9278 -5.26313 12.9383
Spine1  -10.117 30.2528 1.94014
Neck  3.97569e-016 0 -2.38542e-015
Head  44.5653 -9.39973 15.7428
R_Clavicle  0.341071 -10.8087 1.36493
R_UpperArm  56.9545 -14.3497 41.2983
R_Forearm  5.48235 -30.7852 26.9286
R_Hand  -0.977278 4.98536 -18.1696
L_Clavicle  -0.319184 -1.99372 2.37664
L_UpperArm  8.68858 -24.5434 -46.1335
L_Forearm  4.32037 26.5098 34.7858
L_Hand  -0.304533 1.43716 -4.8634
L_Thigh  -4.10477 2.27575 0.368937
L_Calf  -26.1228 6.66293 -58.8987
L_Foot  6.77102 8.66322 16.0701
L_Toe0  0.505156 0.0326103 -6.13611
R_Thigh  1.13687 6.15093 26.5747
R_Calf  -20.0631 -1.53247 -4.54897
R_Foot  -1.08316 -3.14437 1.21733
R_Toe0  -3.80329 -0.16174 -15.6348
257
root  -22.1012 28.0354 12.4154 50.8433 -0.529903 92.6255
Spine  -14.6339 -6.51791 11.9808
Spine1  -12.9591 31.2614 0.396324
Neck  3.97569e-016 0 -2.38542e-015
Head  47.9174 -9.99502 16.9497
R_Clavicle  0.374999 -10.5791 1.70164
R_UpperArm  60.1751 -12.24 45.0488
R_Forearm  9.65572 -23.0653 20.6031
R_Hand  -1.18654 6.60439 -20.2898
L_Clavicle  -0.362682 -1.96321 2.65984
L_UpperArm  6.86731 -21.0533 -45.1587
L_Forearm  1.84642 26.1193 34.2098
L_Hand  -0.312012 2.5792 -4.23458
L_Thigh  -3.95574 6.25223 -3.19749
L_Calf  -24.759 5.34718 -43.5318
L_Foot  7.05479 9.52531 15.9127
L_Toe0  0.505156 0.0325381 -6.13611
R_Thigh  -3.80134 5.32977 26.7878
R_Calf  -19.9814 -0.273656 -0.666048
R_Foot  -0.354859 -1.5118 -0.642189
R_Toe0  -3.8811 -0.142372 -15.3712
258
root  -21.5668 28.7606 13.1323 50.3588 -0.685914 95.9644
Spine  -17.6366 -7.99264 9.7217
Spine1  -15.6126 31.7548 0.556977
Neck  3.97569e-016 0 -2.38542e-015
Head  50.4293 -10.2885 17.213
R_Clavicle  0.423814 -9.59608 2.16366
R_UpperArm  65.3653 -10.2219 48.2079
R_Forearm  12.5126 -14.9308 12.7948
R_Hand  -1.26685 8.42644 -20.945
L_Clavicle  -0.61288 -4.01238 4.12668
L_UpperArm  8.35207 -18.9522 -45.5888
L_Forearm  3.31102 24.284 31.42
L_Hand  -0.301487 3.87297 -3.49832
L_Thigh  -4.85919 9.17062 -6.86161
L_Calf  -25.1321 3.20306 -24.5689
L_Foot  6.54001 9.16727 14.686
L_Toe0  0.505156 0.0328123 -6.13611
R_Thigh  -9.28418 3.22346 26.4182
R_Calf  -18.4421 0.879424 2.85485
R_Foot  0.467474 1.09466 -1.417
R_Toe0  -3.40631 -0.161697 -15.4806
259
root  -21.0932 29.3352 13.796 50.3752 0.289394 99.6369
Spine  -19.7743 -9.88564 7.8369
Spine1  -17.6629 31.8224 -0.511837
Neck  3.97569e-016 0 -2.38542e-015
Head  51.3223 -10.9934 17.226
R_Clavicle  0.511884 -8.37874 2.8668
R_UpperArm  69.2685 -7.60896 53.6656
R_Forearm  14.8153 -6.81951 5.67508
R_Hand  -1.01597 9.55418 -19.2182
L_Clavicle  -0.856175 -6.05202 5.33038
L_UpperArm  10.1831 -17.6815 -46.4191
L_Forearm  9.25431 21.0476 26.3789
L_Hand  -0.324256 4.75451 -3.42165
L_Thigh  -8.46331 10.3696 -11.6455
L_Calf  -22.2327 0.461998 -3.72748
L_Foot  6.36572 9.26728 14.0043
L_Toe0  0.517452 0.033601 -6.14309
R_Thigh  -13.6772 -0.460902 26.2951
R_Calf  -18.3312 1.65393 5.19599
R_Foot  0.960578 3.03711 -0.922754
R_Toe0  -2.57715 -0.242139 -16.6621
260
root  -20.5212 29.5831 14.3504 50.3044 1.9372 103.169
Spine  -20.8353 -11.2928 7.22808
Spine1  -19.2952 31.248 -3.61258
Neck  3.97569e-016 0 -2.38542e-015
Head  51.5992 -11.6276 16.7621
R_Clavicle  0.616779 -6.88377 3.5582
R_UpperArm  73.5801 -4.89305 61.424
R_Forearm  15.5277 0.378689 -0.342057
R_Hand  -0.784385 10.1551 -17.7185
L_Clavicle  -0.970435 -7.6634 5.63942
L_UpperArm  10.1663 -17.017 -46.0107
L_Forearm  13.6098 16.3991 19.8619
L_Hand  -0.381743 5.37326 -3.80411
L_Thigh  -12.516 9.49761 -16.35
L_Calf  -10.6096 -1.98098 14.4178
L_Foot  5.42101 7.66142 12.6903
L_Toe0  0.535832 0.0242489 -6.16402
R_Thigh  -16.6763 -4.6719 27.3753
R_Calf  -18.8732 1.8495 5.76137
R_Foot  0.820578 2.9293 0.326432
R_Toe0  -1.71452 -0.275992 -17.3887
